<?xml version="1.0" standalone="no"?>
<!DOCTYPE svg PUBLIC "-//W3C//DTD SVG 20010904//EN"
 "http://www.w3.org/TR/2001/REC-SVG-20010904/DTD/svg10.dtd">
<svg version="1.0" xmlns="http://www.w3.org/2000/svg"
 width="328.000000pt" height="328.000000pt" viewBox="0 0 328.000000 328.000000"
 preserveAspectRatio="xMidYMid meet">
<metadata>
Created by potrace 1.11, written by Peter Selinger 2001-2013
</metadata>
<g transform="translate(0.000000,328.000000) scale(0.100000,-0.100000)"
fill="#000000" stroke="none">
<path d="M260 1915 l0 -1255 450 0 449 0 35 -75 c128 -278 371 -473 671 -541
103 -23 290 -23 399 1 375 80 657 368 741 755 21 98 13 322 -15 425 -70 256
-244 475 -477 600 l-53 28 0 346 0 346 -313 313 -313 312 -787 0 -787 0 0
-1255z m1410 1088 c3 -7 5 -147 4 -312 0 -202 3 -301 10 -304 6 -2 145 -3 309
-2 166 0 301 -4 304 -9 6 -9 8 -455 2 -461 -2 -2 -44 2 -92 9 -222 33 -448
-11 -635 -125 l-67 -41 -450 0 c-247 1 -457 -1 -466 -4 -13 -4 -16 -18 -15
-77 l1 -72 377 -5 377 -5 -54 -78 c-29 -43 -68 -111 -86 -152 -20 -47 -39 -75
-48 -75 -9 -1 -140 -2 -291 -3 l-275 -2 -1 -77 0 -78 270 0 271 0 0 -155 c0
-96 -4 -155 -10 -156 -49 -4 -677 -1 -681 4 -12 11 -8 2179 4 2186 5 3 286 6
624 6 471 0 614 -3 618 -12z m365 -258 c107 -107 195 -196 195 -198 0 -3 -89
-4 -197 -3 l-198 1 -3 198 c-1 108 0 197 3 197 3 0 93 -88 200 -195z m-10
-1051 c0 -89 6 -104 40 -104 34 0 42 23 41 112 l-1 78 38 -5 c169 -21 308 -80
429 -179 63 -52 143 -146 185 -216 47 -77 89 -208 99 -302 l6 -58 -73 0 c-78
0 -92 -5 -102 -32 -12 -33 19 -48 100 -48 l75 0 -6 -56 c-39 -360 -337 -657
-698 -698 -27 -3 -48 -2 -49 2 0 4 -2 39 -3 77 -4 87 -2 82 -26 95 -15 8 -24
6 -38 -8 -15 -15 -18 -33 -17 -94 l1 -76 -51 4 c-352 32 -666 343 -701 697
l-6 57 75 0 c81 0 112 15 100 48 -10 27 -24 32 -102 32 l-73 0 7 67 c19 174
120 366 259 490 105 93 250 164 386 187 109 19 104 22 105 -70z"/>
<path d="M577 2693 c-2 -5 -4 -39 -3 -78 l1 -70 470 0 470 0 0 75 0 75 -467 3
c-257 1 -469 -1 -471 -5z"/>
<path d="M577 2223 c-2 -5 -3 -39 -3 -78 l1 -70 785 0 785 0 1 78 1 77 -783 0
c-430 0 -785 -3 -787 -7z"/>
<path d="M1674 1372 c-6 -4 -14 -16 -18 -26 -5 -15 27 -53 164 -190 109 -111
170 -179 170 -192 0 -26 26 -50 63 -60 21 -5 36 -1 57 15 28 20 40 21 264 21
225 0 236 1 246 20 8 14 8 26 0 40 -10 19 -21 20 -247 20 -201 0 -239 2 -254
16 -9 8 -32 18 -51 20 -27 4 -64 36 -193 165 -88 87 -167 159 -175 159 -8 0
-20 -4 -26 -8z"/>
</g>
</svg>
